<mxfile host="app.diagrams.net" agent="Mozilla/5.0 (Windows NT 10.0; Win64; x64) AppleWebKit/537.36 (KHTML, like Gecko) Chrome/121.0.0.0 Safari/537.36" version="26.2.14">
  <diagram name="Page-1" id="0783ab3e-0a74-02c8-0abd-f7b4e66b4bec">
    <mxGraphModel dx="1783" dy="939" grid="1" gridSize="10" guides="1" tooltips="1" connect="1" arrows="1" fold="1" page="1" pageScale="1" pageWidth="827" pageHeight="1169" background="none" math="0" shadow="0">
      <root>
        <mxCell id="0" />
        <mxCell id="1" parent="0" />
        <mxCell id="YXse6uYGAKZ3lHDHG_9C-1" value="Pool" style="swimlane;html=1;childLayout=stackLayout;startSize=20;rounded=0;shadow=0;comic=0;labelBackgroundColor=none;strokeWidth=1;fontFamily=Verdana;fontSize=12;align=center;" vertex="1" parent="1">
          <mxGeometry x="110" y="90" width="1250" height="990" as="geometry" />
        </mxCell>
        <mxCell id="YXse6uYGAKZ3lHDHG_9C-2" value="Logic App" style="swimlane;html=1;startSize=20;" vertex="1" parent="YXse6uYGAKZ3lHDHG_9C-1">
          <mxGeometry y="20" width="250" height="970" as="geometry" />
        </mxCell>
        <mxCell id="YXse6uYGAKZ3lHDHG_9C-29" value="" style="ellipse;whiteSpace=wrap;html=1;rounded=0;shadow=0;comic=0;labelBackgroundColor=none;strokeWidth=1;fillColor=#000000;fontFamily=Verdana;fontSize=12;align=center;" vertex="1" parent="YXse6uYGAKZ3lHDHG_9C-2">
          <mxGeometry x="105" y="30" width="40" height="40" as="geometry" />
        </mxCell>
        <mxCell id="YXse6uYGAKZ3lHDHG_9C-30" value="Recurrence Trigger" style="rounded=1;whiteSpace=wrap;html=1;shadow=0;comic=0;labelBackgroundColor=none;strokeWidth=1;fontFamily=Verdana;fontSize=12;align=center;arcSize=50;" vertex="1" parent="YXse6uYGAKZ3lHDHG_9C-2">
          <mxGeometry x="80" y="110" width="100" height="30" as="geometry" />
        </mxCell>
        <mxCell id="YXse6uYGAKZ3lHDHG_9C-28" style="edgeStyle=orthogonalEdgeStyle;rounded=0;html=1;labelBackgroundColor=none;startArrow=none;startFill=0;startSize=5;endArrow=classicThin;endFill=1;endSize=5;jettySize=auto;orthogonalLoop=1;strokeWidth=1;fontFamily=Verdana;fontSize=12" edge="1" parent="YXse6uYGAKZ3lHDHG_9C-2" source="YXse6uYGAKZ3lHDHG_9C-29" target="YXse6uYGAKZ3lHDHG_9C-30">
          <mxGeometry relative="1" as="geometry" />
        </mxCell>
        <mxCell id="YXse6uYGAKZ3lHDHG_9C-63" value="Call Recon API" style="rounded=1;whiteSpace=wrap;html=1;shadow=0;comic=0;labelBackgroundColor=none;strokeWidth=1;fontFamily=Verdana;fontSize=12;align=center;arcSize=50;" vertex="1" parent="YXse6uYGAKZ3lHDHG_9C-2">
          <mxGeometry x="80" y="200" width="100" height="30" as="geometry" />
        </mxCell>
        <mxCell id="YXse6uYGAKZ3lHDHG_9C-56" style="edgeStyle=orthogonalEdgeStyle;rounded=0;html=1;labelBackgroundColor=none;startArrow=none;startFill=0;startSize=5;endArrow=classicThin;endFill=1;endSize=5;jettySize=auto;orthogonalLoop=1;strokeWidth=1;fontFamily=Verdana;fontSize=12;exitX=0.5;exitY=1;exitDx=0;exitDy=0;entryX=0.5;entryY=0;entryDx=0;entryDy=0;" edge="1" parent="YXse6uYGAKZ3lHDHG_9C-2" source="YXse6uYGAKZ3lHDHG_9C-30" target="YXse6uYGAKZ3lHDHG_9C-63">
          <mxGeometry relative="1" as="geometry">
            <Array as="points">
              <mxPoint x="130" y="170" />
              <mxPoint x="130" y="170" />
            </Array>
            <mxPoint x="353.5" y="160" as="targetPoint" />
          </mxGeometry>
        </mxCell>
        <mxCell id="YXse6uYGAKZ3lHDHG_9C-11" value="API Management" style="swimlane;html=1;startSize=20;" vertex="1" parent="YXse6uYGAKZ3lHDHG_9C-1">
          <mxGeometry x="250" y="20" width="250" height="970" as="geometry" />
        </mxCell>
        <mxCell id="YXse6uYGAKZ3lHDHG_9C-105" value="API endpoints" style="rounded=0;whiteSpace=wrap;html=1;shadow=0;comic=0;labelBackgroundColor=none;strokeWidth=1;fontFamily=Verdana;fontSize=12;align=center;arcSize=50;" vertex="1" parent="YXse6uYGAKZ3lHDHG_9C-11">
          <mxGeometry x="90" y="110" width="70" height="30" as="geometry" />
        </mxCell>
        <mxCell id="YXse6uYGAKZ3lHDHG_9C-70" value="" style="edgeStyle=orthogonalEdgeStyle;rounded=0;orthogonalLoop=1;jettySize=auto;html=1;entryX=0;entryY=0.5;entryDx=0;entryDy=0;curved=1;" edge="1" parent="YXse6uYGAKZ3lHDHG_9C-1" source="YXse6uYGAKZ3lHDHG_9C-63" target="YXse6uYGAKZ3lHDHG_9C-105">
          <mxGeometry relative="1" as="geometry" />
        </mxCell>
        <mxCell id="YXse6uYGAKZ3lHDHG_9C-27" value="Microservices" style="swimlane;html=1;startSize=20;" vertex="1" parent="YXse6uYGAKZ3lHDHG_9C-1">
          <mxGeometry x="500" y="20" width="250" height="970" as="geometry" />
        </mxCell>
        <mxCell id="YXse6uYGAKZ3lHDHG_9C-68" value="API Controllers" style="rounded=0;whiteSpace=wrap;html=1;shadow=0;comic=0;labelBackgroundColor=none;strokeWidth=1;fontFamily=Verdana;fontSize=12;align=center;arcSize=50;" vertex="1" parent="YXse6uYGAKZ3lHDHG_9C-27">
          <mxGeometry x="20" y="110" width="70" height="30" as="geometry" />
        </mxCell>
        <mxCell id="YXse6uYGAKZ3lHDHG_9C-72" value="Recon Services" style="rounded=0;whiteSpace=wrap;html=1;shadow=0;comic=0;labelBackgroundColor=none;strokeWidth=1;fontFamily=Verdana;fontSize=12;align=center;arcSize=50;" vertex="1" parent="YXse6uYGAKZ3lHDHG_9C-27">
          <mxGeometry x="20" y="190" width="70" height="30" as="geometry" />
        </mxCell>
        <mxCell id="YXse6uYGAKZ3lHDHG_9C-107" value="" style="edgeStyle=orthogonalEdgeStyle;rounded=0;orthogonalLoop=1;jettySize=auto;html=1;entryX=0.5;entryY=0;entryDx=0;entryDy=0;exitX=0.5;exitY=1;exitDx=0;exitDy=0;" edge="1" parent="YXse6uYGAKZ3lHDHG_9C-27" source="YXse6uYGAKZ3lHDHG_9C-68" target="YXse6uYGAKZ3lHDHG_9C-72">
          <mxGeometry relative="1" as="geometry">
            <mxPoint x="140" y="220" as="sourcePoint" />
            <mxPoint x="250" y="180" as="targetPoint" />
          </mxGeometry>
        </mxCell>
        <mxCell id="YXse6uYGAKZ3lHDHG_9C-108" value="Recon Backend Repository" style="rounded=0;whiteSpace=wrap;html=1;shadow=0;comic=0;labelBackgroundColor=none;strokeWidth=1;fontFamily=Verdana;fontSize=12;align=center;arcSize=50;" vertex="1" parent="YXse6uYGAKZ3lHDHG_9C-27">
          <mxGeometry x="120" y="190" width="100" height="30" as="geometry" />
        </mxCell>
        <mxCell id="YXse6uYGAKZ3lHDHG_9C-109" value="" style="edgeStyle=orthogonalEdgeStyle;rounded=0;orthogonalLoop=1;jettySize=auto;html=1;entryX=0;entryY=0.5;entryDx=0;entryDy=0;exitX=1;exitY=0.5;exitDx=0;exitDy=0;" edge="1" parent="YXse6uYGAKZ3lHDHG_9C-27" source="YXse6uYGAKZ3lHDHG_9C-72" target="YXse6uYGAKZ3lHDHG_9C-108">
          <mxGeometry relative="1" as="geometry">
            <mxPoint x="65" y="150" as="sourcePoint" />
            <mxPoint x="65" y="200" as="targetPoint" />
          </mxGeometry>
        </mxCell>
        <mxCell id="YXse6uYGAKZ3lHDHG_9C-111" value="Initial DB connections" style="rounded=1;whiteSpace=wrap;html=1;shadow=0;comic=0;labelBackgroundColor=none;strokeWidth=1;fontFamily=Verdana;fontSize=12;align=center;arcSize=50;" vertex="1" parent="YXse6uYGAKZ3lHDHG_9C-27">
          <mxGeometry x="120" y="280" width="100" height="30" as="geometry" />
        </mxCell>
        <mxCell id="YXse6uYGAKZ3lHDHG_9C-112" value="" style="edgeStyle=orthogonalEdgeStyle;rounded=0;orthogonalLoop=1;jettySize=auto;html=1;entryX=0.5;entryY=0;entryDx=0;entryDy=0;exitX=0.5;exitY=1;exitDx=0;exitDy=0;" edge="1" parent="YXse6uYGAKZ3lHDHG_9C-27" source="YXse6uYGAKZ3lHDHG_9C-108" target="YXse6uYGAKZ3lHDHG_9C-111">
          <mxGeometry relative="1" as="geometry">
            <mxPoint x="100" y="215" as="sourcePoint" />
            <mxPoint x="130" y="215" as="targetPoint" />
          </mxGeometry>
        </mxCell>
        <mxCell id="YXse6uYGAKZ3lHDHG_9C-126" value="Call AZDO APIs" style="rounded=1;whiteSpace=wrap;html=1;shadow=0;comic=0;labelBackgroundColor=none;strokeWidth=1;fontFamily=Verdana;fontSize=12;align=center;arcSize=50;" vertex="1" parent="YXse6uYGAKZ3lHDHG_9C-27">
          <mxGeometry x="120" y="543" width="100" height="30" as="geometry" />
        </mxCell>
        <mxCell id="YXse6uYGAKZ3lHDHG_9C-101" value="Databases" style="swimlane;html=1;startSize=20;" vertex="1" parent="YXse6uYGAKZ3lHDHG_9C-1">
          <mxGeometry x="750" y="20" width="250" height="970" as="geometry" />
        </mxCell>
        <mxCell id="YXse6uYGAKZ3lHDHG_9C-106" value="" style="edgeStyle=orthogonalEdgeStyle;rounded=0;orthogonalLoop=1;jettySize=auto;html=1;exitX=1;exitY=0.5;exitDx=0;exitDy=0;entryX=0;entryY=0.5;entryDx=0;entryDy=0;" edge="1" parent="YXse6uYGAKZ3lHDHG_9C-1" source="YXse6uYGAKZ3lHDHG_9C-105" target="YXse6uYGAKZ3lHDHG_9C-68">
          <mxGeometry relative="1" as="geometry">
            <mxPoint x="480" y="200" as="sourcePoint" />
            <mxPoint x="550" y="150" as="targetPoint" />
          </mxGeometry>
        </mxCell>
        <mxCell id="YXse6uYGAKZ3lHDHG_9C-91" value="Logic App" style="swimlane;html=1;startSize=20;" vertex="1" parent="1">
          <mxGeometry x="110" y="110" width="250" height="970" as="geometry" />
        </mxCell>
        <mxCell id="YXse6uYGAKZ3lHDHG_9C-92" value="" style="ellipse;whiteSpace=wrap;html=1;rounded=0;shadow=0;comic=0;labelBackgroundColor=none;strokeWidth=1;fillColor=#000000;fontFamily=Verdana;fontSize=12;align=center;" vertex="1" parent="YXse6uYGAKZ3lHDHG_9C-91">
          <mxGeometry x="105" y="30" width="40" height="40" as="geometry" />
        </mxCell>
        <mxCell id="YXse6uYGAKZ3lHDHG_9C-93" value="Recurrence Trigger" style="rounded=1;whiteSpace=wrap;html=1;shadow=0;comic=0;labelBackgroundColor=none;strokeWidth=1;fontFamily=Verdana;fontSize=12;align=center;arcSize=50;" vertex="1" parent="YXse6uYGAKZ3lHDHG_9C-91">
          <mxGeometry x="80" y="110" width="100" height="30" as="geometry" />
        </mxCell>
        <mxCell id="YXse6uYGAKZ3lHDHG_9C-94" style="edgeStyle=orthogonalEdgeStyle;rounded=0;html=1;labelBackgroundColor=none;startArrow=none;startFill=0;startSize=5;endArrow=classicThin;endFill=1;endSize=5;jettySize=auto;orthogonalLoop=1;strokeWidth=1;fontFamily=Verdana;fontSize=12" edge="1" parent="YXse6uYGAKZ3lHDHG_9C-91" source="YXse6uYGAKZ3lHDHG_9C-92" target="YXse6uYGAKZ3lHDHG_9C-93">
          <mxGeometry relative="1" as="geometry" />
        </mxCell>
        <mxCell id="YXse6uYGAKZ3lHDHG_9C-95" value="Call Recon API" style="rounded=1;whiteSpace=wrap;html=1;shadow=0;comic=0;labelBackgroundColor=none;strokeWidth=1;fontFamily=Verdana;fontSize=12;align=center;arcSize=50;" vertex="1" parent="YXse6uYGAKZ3lHDHG_9C-91">
          <mxGeometry x="80" y="200" width="100" height="30" as="geometry" />
        </mxCell>
        <mxCell id="YXse6uYGAKZ3lHDHG_9C-96" style="edgeStyle=orthogonalEdgeStyle;rounded=0;html=1;labelBackgroundColor=none;startArrow=none;startFill=0;startSize=5;endArrow=classicThin;endFill=1;endSize=5;jettySize=auto;orthogonalLoop=1;strokeWidth=1;fontFamily=Verdana;fontSize=12;exitX=0.5;exitY=1;exitDx=0;exitDy=0;entryX=0.5;entryY=0;entryDx=0;entryDy=0;" edge="1" parent="YXse6uYGAKZ3lHDHG_9C-91" source="YXse6uYGAKZ3lHDHG_9C-93" target="YXse6uYGAKZ3lHDHG_9C-95">
          <mxGeometry relative="1" as="geometry">
            <Array as="points">
              <mxPoint x="130" y="170" />
              <mxPoint x="130" y="170" />
            </Array>
            <mxPoint x="353.5" y="160" as="targetPoint" />
          </mxGeometry>
        </mxCell>
        <mxCell id="YXse6uYGAKZ3lHDHG_9C-140" value="Async Call" style="shape=note;whiteSpace=wrap;html=1;rounded=0;shadow=0;comic=0;labelBackgroundColor=none;strokeWidth=1;fontFamily=Verdana;fontSize=12;align=center;size=20;" vertex="1" parent="YXse6uYGAKZ3lHDHG_9C-91">
          <mxGeometry x="145" y="280" width="95" height="45" as="geometry" />
        </mxCell>
        <mxCell id="YXse6uYGAKZ3lHDHG_9C-153" value="" style="endArrow=none;dashed=1;html=1;dashPattern=1 3;strokeWidth=2;rounded=0;entryX=1;entryY=1;entryDx=0;entryDy=0;exitX=0.5;exitY=0;exitDx=0;exitDy=0;exitPerimeter=0;" edge="1" parent="YXse6uYGAKZ3lHDHG_9C-91" source="YXse6uYGAKZ3lHDHG_9C-140" target="YXse6uYGAKZ3lHDHG_9C-95">
          <mxGeometry width="50" height="50" relative="1" as="geometry">
            <mxPoint x="510" y="340" as="sourcePoint" />
            <mxPoint x="560" y="290" as="targetPoint" />
          </mxGeometry>
        </mxCell>
        <mxCell id="YXse6uYGAKZ3lHDHG_9C-97" value="Databases" style="swimlane;html=1;startSize=20;" vertex="1" parent="1">
          <mxGeometry x="860" y="110" width="250" height="970" as="geometry" />
        </mxCell>
        <mxCell id="YXse6uYGAKZ3lHDHG_9C-100" value="" style="whiteSpace=wrap;html=1;rounded=0;shadow=0;comic=0;labelBackgroundColor=none;strokeWidth=1;fillColor=#000000;fontFamily=Verdana;fontSize=12;align=center;rotation=0;" vertex="1" parent="YXse6uYGAKZ3lHDHG_9C-97">
          <mxGeometry x="70" y="340" width="98.5" height="10" as="geometry" />
        </mxCell>
        <mxCell id="YXse6uYGAKZ3lHDHG_9C-116" value="Execute Recon Count SQL Script" style="rounded=1;whiteSpace=wrap;html=1;shadow=0;comic=0;labelBackgroundColor=none;strokeWidth=1;fontFamily=Verdana;fontSize=12;align=center;arcSize=50;" vertex="1" parent="YXse6uYGAKZ3lHDHG_9C-97">
          <mxGeometry x="10" y="420" width="100" height="40" as="geometry" />
        </mxCell>
        <mxCell id="YXse6uYGAKZ3lHDHG_9C-117" value="Execute Recon Checksum&amp;nbsp;&lt;div&gt;SQL Script&lt;/div&gt;" style="rounded=1;whiteSpace=wrap;html=1;shadow=0;comic=0;labelBackgroundColor=none;strokeWidth=1;fontFamily=Verdana;fontSize=12;align=center;arcSize=50;" vertex="1" parent="YXse6uYGAKZ3lHDHG_9C-97">
          <mxGeometry x="140" y="420" width="100" height="40" as="geometry" />
        </mxCell>
        <mxCell id="YXse6uYGAKZ3lHDHG_9C-118" value="" style="endArrow=classic;html=1;rounded=0;exitX=0.25;exitY=1;exitDx=0;exitDy=0;entryX=0.5;entryY=0;entryDx=0;entryDy=0;edgeStyle=orthogonalEdgeStyle;curved=1;" edge="1" parent="YXse6uYGAKZ3lHDHG_9C-97" source="YXse6uYGAKZ3lHDHG_9C-100" target="YXse6uYGAKZ3lHDHG_9C-116">
          <mxGeometry width="50" height="50" relative="1" as="geometry">
            <mxPoint x="-50" y="420" as="sourcePoint" />
            <mxPoint y="370" as="targetPoint" />
          </mxGeometry>
        </mxCell>
        <mxCell id="YXse6uYGAKZ3lHDHG_9C-119" value="" style="endArrow=classic;html=1;rounded=0;entryX=0.5;entryY=0;entryDx=0;entryDy=0;exitX=0.75;exitY=1;exitDx=0;exitDy=0;edgeStyle=orthogonalEdgeStyle;curved=1;" edge="1" parent="YXse6uYGAKZ3lHDHG_9C-97" source="YXse6uYGAKZ3lHDHG_9C-100" target="YXse6uYGAKZ3lHDHG_9C-117">
          <mxGeometry width="50" height="50" relative="1" as="geometry">
            <mxPoint x="-50" y="420" as="sourcePoint" />
            <mxPoint y="370" as="targetPoint" />
          </mxGeometry>
        </mxCell>
        <mxCell id="YXse6uYGAKZ3lHDHG_9C-121" value="Recon Results" style="rounded=0;whiteSpace=wrap;html=1;shadow=0;comic=0;labelBackgroundColor=none;strokeWidth=1;fontFamily=Verdana;fontSize=12;align=center;arcSize=50;" vertex="1" parent="YXse6uYGAKZ3lHDHG_9C-97">
          <mxGeometry x="75" y="530" width="100" height="30" as="geometry" />
        </mxCell>
        <mxCell id="YXse6uYGAKZ3lHDHG_9C-123" value="" style="endArrow=classic;html=1;rounded=0;exitX=0.5;exitY=1;exitDx=0;exitDy=0;entryX=0.5;entryY=0;entryDx=0;entryDy=0;edgeStyle=orthogonalEdgeStyle;curved=1;" edge="1" parent="YXse6uYGAKZ3lHDHG_9C-97" source="YXse6uYGAKZ3lHDHG_9C-116" target="YXse6uYGAKZ3lHDHG_9C-121">
          <mxGeometry width="50" height="50" relative="1" as="geometry">
            <mxPoint x="-50" y="590" as="sourcePoint" />
            <mxPoint y="540" as="targetPoint" />
          </mxGeometry>
        </mxCell>
        <mxCell id="YXse6uYGAKZ3lHDHG_9C-124" value="" style="endArrow=classic;html=1;rounded=0;exitX=0.57;exitY=0.95;exitDx=0;exitDy=0;entryX=0.5;entryY=0;entryDx=0;entryDy=0;edgeStyle=orthogonalEdgeStyle;curved=1;exitPerimeter=0;" edge="1" parent="YXse6uYGAKZ3lHDHG_9C-97" source="YXse6uYGAKZ3lHDHG_9C-117" target="YXse6uYGAKZ3lHDHG_9C-121">
          <mxGeometry width="50" height="50" relative="1" as="geometry">
            <mxPoint x="70" y="470" as="sourcePoint" />
            <mxPoint x="135" y="540" as="targetPoint" />
          </mxGeometry>
        </mxCell>
        <mxCell id="YXse6uYGAKZ3lHDHG_9C-113" value="" style="endArrow=classic;html=1;rounded=0;exitX=1;exitY=0.5;exitDx=0;exitDy=0;entryX=0.5;entryY=0;entryDx=0;entryDy=0;edgeStyle=orthogonalEdgeStyle;curved=1;" edge="1" parent="1" source="YXse6uYGAKZ3lHDHG_9C-111" target="YXse6uYGAKZ3lHDHG_9C-100">
          <mxGeometry width="50" height="50" relative="1" as="geometry">
            <mxPoint x="850" y="530" as="sourcePoint" />
            <mxPoint x="900" y="480" as="targetPoint" />
          </mxGeometry>
        </mxCell>
        <mxCell id="YXse6uYGAKZ3lHDHG_9C-127" value="" style="edgeStyle=orthogonalEdgeStyle;rounded=0;orthogonalLoop=1;jettySize=auto;html=1;entryX=0.5;entryY=0;entryDx=0;entryDy=0;exitX=0;exitY=0.5;exitDx=0;exitDy=0;" edge="1" parent="1" source="YXse6uYGAKZ3lHDHG_9C-121" target="YXse6uYGAKZ3lHDHG_9C-126">
          <mxGeometry relative="1" as="geometry">
            <mxPoint x="935" y="655" as="sourcePoint" />
            <mxPoint x="750" y="780" as="targetPoint" />
          </mxGeometry>
        </mxCell>
        <mxCell id="YXse6uYGAKZ3lHDHG_9C-143" value="Databases" style="swimlane;html=1;startSize=20;" vertex="1" parent="1">
          <mxGeometry x="1110" y="110" width="250" height="970" as="geometry" />
        </mxCell>
        <mxCell id="YXse6uYGAKZ3lHDHG_9C-144" value="App Insight" style="swimlane;html=1;startSize=20;" vertex="1" parent="1">
          <mxGeometry x="1110" y="110" width="250" height="970" as="geometry" />
        </mxCell>
        <mxCell id="YXse6uYGAKZ3lHDHG_9C-138" value="Produce Recon Results to App Insight" style="rounded=1;whiteSpace=wrap;html=1;shadow=0;comic=0;labelBackgroundColor=none;strokeWidth=1;fontFamily=Verdana;fontSize=12;align=center;arcSize=50;" vertex="1" parent="YXse6uYGAKZ3lHDHG_9C-144">
          <mxGeometry x="90" y="630" width="120" height="40" as="geometry" />
        </mxCell>
        <mxCell id="YXse6uYGAKZ3lHDHG_9C-99" value="" style="shape=mxgraph.bpmn.shape;html=1;verticalLabelPosition=bottom;labelBackgroundColor=#ffffff;verticalAlign=top;perimeter=ellipsePerimeter;outline=end;symbol=terminate;rounded=0;shadow=0;comic=0;strokeWidth=1;fontFamily=Verdana;fontSize=12;align=center;" vertex="1" parent="YXse6uYGAKZ3lHDHG_9C-144">
          <mxGeometry x="130" y="690" width="40" height="40" as="geometry" />
        </mxCell>
        <mxCell id="YXse6uYGAKZ3lHDHG_9C-125" value="" style="edgeStyle=orthogonalEdgeStyle;rounded=0;orthogonalLoop=1;jettySize=auto;html=1;entryX=0.5;entryY=0;entryDx=0;entryDy=0;exitX=0.5;exitY=1;exitDx=0;exitDy=0;" edge="1" parent="YXse6uYGAKZ3lHDHG_9C-144" source="YXse6uYGAKZ3lHDHG_9C-138" target="YXse6uYGAKZ3lHDHG_9C-99">
          <mxGeometry relative="1" as="geometry">
            <mxPoint x="-320" y="230" as="sourcePoint" />
            <mxPoint x="-320" y="290" as="targetPoint" />
          </mxGeometry>
        </mxCell>
        <mxCell id="YXse6uYGAKZ3lHDHG_9C-139" value="" style="edgeStyle=orthogonalEdgeStyle;rounded=0;orthogonalLoop=1;jettySize=auto;html=1;entryX=0.5;entryY=0;entryDx=0;entryDy=0;exitX=0.5;exitY=1;exitDx=0;exitDy=0;" edge="1" parent="1" source="YXse6uYGAKZ3lHDHG_9C-126" target="YXse6uYGAKZ3lHDHG_9C-138">
          <mxGeometry relative="1" as="geometry">
            <mxPoint x="1360" y="748" as="sourcePoint" />
            <mxPoint x="1365" y="960" as="targetPoint" />
          </mxGeometry>
        </mxCell>
      </root>
    </mxGraphModel>
  </diagram>
</mxfile>
